<mxfile host="app.diagrams.net" modified="2024-05-17T13:48:49.038Z" agent="Mozilla/5.0 (Windows NT 10.0; Win64; x64) AppleWebKit/537.36 (KHTML, like Gecko) Chrome/123.0.0.0 Safari/537.36 OPR/109.0.0.0 (Edition Yx GX 03)" etag="2EhBTijIwcFsGjVBFKkL" version="24.0.6" type="device">
  <diagram name="Страница — 1" id="zBL7nr5m40juxzCDOqML">
    <mxGraphModel dx="1434" dy="789" grid="1" gridSize="10" guides="1" tooltips="1" connect="1" arrows="1" fold="1" page="1" pageScale="1" pageWidth="827" pageHeight="1169" math="0" shadow="0">
      <root>
        <mxCell id="0" />
        <mxCell id="1" parent="0" />
        <mxCell id="xuxrbrmnjuZVhDg_zc8x-42" style="edgeStyle=orthogonalEdgeStyle;rounded=0;orthogonalLoop=1;jettySize=auto;html=1;exitX=0.5;exitY=0.5;exitDx=0;exitDy=0;exitPerimeter=0;endArrow=none;endFill=0;" edge="1" parent="1" source="xuxrbrmnjuZVhDg_zc8x-45" target="xuxrbrmnjuZVhDg_zc8x-71">
          <mxGeometry relative="1" as="geometry">
            <Array as="points">
              <mxPoint x="695" y="180" />
              <mxPoint x="1140" y="180" />
            </Array>
          </mxGeometry>
        </mxCell>
        <mxCell id="xuxrbrmnjuZVhDg_zc8x-43" style="rounded=0;orthogonalLoop=1;jettySize=auto;html=1;exitX=0.5;exitY=0;exitDx=0;exitDy=0;exitPerimeter=0;entryX=1;entryY=1;entryDx=0;entryDy=0;endArrow=none;endFill=0;" edge="1" parent="1" source="xuxrbrmnjuZVhDg_zc8x-45" target="xuxrbrmnjuZVhDg_zc8x-80">
          <mxGeometry relative="1" as="geometry" />
        </mxCell>
        <mxCell id="xuxrbrmnjuZVhDg_zc8x-44" style="rounded=0;orthogonalLoop=1;jettySize=auto;html=1;exitX=0.5;exitY=0.5;exitDx=0;exitDy=0;exitPerimeter=0;" edge="1" parent="1" source="xuxrbrmnjuZVhDg_zc8x-45" target="xuxrbrmnjuZVhDg_zc8x-53">
          <mxGeometry relative="1" as="geometry" />
        </mxCell>
        <mxCell id="xuxrbrmnjuZVhDg_zc8x-45" value="Гость" style="shape=umlActor;verticalLabelPosition=bottom;verticalAlign=top;html=1;" vertex="1" parent="1">
          <mxGeometry x="680" y="220" width="30" height="60" as="geometry" />
        </mxCell>
        <mxCell id="xuxrbrmnjuZVhDg_zc8x-46" style="rounded=0;orthogonalLoop=1;jettySize=auto;html=1;exitX=0.5;exitY=0.5;exitDx=0;exitDy=0;exitPerimeter=0;entryX=0;entryY=0.5;entryDx=0;entryDy=0;endArrow=none;endFill=0;" edge="1" parent="1" source="xuxrbrmnjuZVhDg_zc8x-48" target="xuxrbrmnjuZVhDg_zc8x-70">
          <mxGeometry relative="1" as="geometry" />
        </mxCell>
        <mxCell id="xuxrbrmnjuZVhDg_zc8x-47" style="rounded=0;orthogonalLoop=1;jettySize=auto;html=1;exitX=0.5;exitY=0.5;exitDx=0;exitDy=0;exitPerimeter=0;entryX=1;entryY=0.5;entryDx=0;entryDy=0;" edge="1" parent="1" source="xuxrbrmnjuZVhDg_zc8x-48" target="xuxrbrmnjuZVhDg_zc8x-53">
          <mxGeometry relative="1" as="geometry" />
        </mxCell>
        <mxCell id="xuxrbrmnjuZVhDg_zc8x-48" value="Работник гардероба" style="shape=umlActor;verticalLabelPosition=bottom;verticalAlign=top;html=1;" vertex="1" parent="1">
          <mxGeometry x="680" y="430" width="30" height="60" as="geometry" />
        </mxCell>
        <mxCell id="xuxrbrmnjuZVhDg_zc8x-49" style="rounded=0;orthogonalLoop=1;jettySize=auto;html=1;exitX=0.5;exitY=0.5;exitDx=0;exitDy=0;exitPerimeter=0;entryX=0;entryY=0.5;entryDx=0;entryDy=0;endArrow=none;endFill=0;" edge="1" parent="1" source="xuxrbrmnjuZVhDg_zc8x-52" target="xuxrbrmnjuZVhDg_zc8x-60">
          <mxGeometry relative="1" as="geometry" />
        </mxCell>
        <mxCell id="xuxrbrmnjuZVhDg_zc8x-50" style="rounded=0;orthogonalLoop=1;jettySize=auto;html=1;exitX=0.5;exitY=0.5;exitDx=0;exitDy=0;exitPerimeter=0;entryX=0;entryY=0.5;entryDx=0;entryDy=0;endArrow=none;endFill=0;" edge="1" parent="1" source="xuxrbrmnjuZVhDg_zc8x-52" target="xuxrbrmnjuZVhDg_zc8x-61">
          <mxGeometry relative="1" as="geometry" />
        </mxCell>
        <mxCell id="xuxrbrmnjuZVhDg_zc8x-51" style="rounded=0;orthogonalLoop=1;jettySize=auto;html=1;exitX=0.5;exitY=0.5;exitDx=0;exitDy=0;exitPerimeter=0;entryX=0.5;entryY=1;entryDx=0;entryDy=0;" edge="1" parent="1" source="xuxrbrmnjuZVhDg_zc8x-52" target="xuxrbrmnjuZVhDg_zc8x-53">
          <mxGeometry relative="1" as="geometry" />
        </mxCell>
        <mxCell id="xuxrbrmnjuZVhDg_zc8x-52" value="Администратор&lt;br&gt;" style="shape=umlActor;verticalLabelPosition=bottom;verticalAlign=top;html=1;" vertex="1" parent="1">
          <mxGeometry x="680" y="580" width="30" height="60" as="geometry" />
        </mxCell>
        <mxCell id="xuxrbrmnjuZVhDg_zc8x-53" value="Просмотр состояния АГР" style="ellipse;whiteSpace=wrap;html=1;" vertex="1" parent="1">
          <mxGeometry x="420" y="425" width="140" height="70" as="geometry" />
        </mxCell>
        <mxCell id="xuxrbrmnjuZVhDg_zc8x-60" value="Добавление новых АГР в систему" style="ellipse;whiteSpace=wrap;html=1;" vertex="1" parent="1">
          <mxGeometry x="785" y="550" width="140" height="70" as="geometry" />
        </mxCell>
        <mxCell id="xuxrbrmnjuZVhDg_zc8x-61" value="Изменение данных АГР" style="ellipse;whiteSpace=wrap;html=1;" vertex="1" parent="1">
          <mxGeometry x="785" y="650" width="140" height="70" as="geometry" />
        </mxCell>
        <mxCell id="xuxrbrmnjuZVhDg_zc8x-62" style="rounded=0;orthogonalLoop=1;jettySize=auto;html=1;entryX=0.5;entryY=0;entryDx=0;entryDy=0;endArrow=classic;endFill=1;dashed=1;" edge="1" parent="1" source="xuxrbrmnjuZVhDg_zc8x-66" target="xuxrbrmnjuZVhDg_zc8x-70">
          <mxGeometry relative="1" as="geometry" />
        </mxCell>
        <mxCell id="xuxrbrmnjuZVhDg_zc8x-63" value="&amp;lt;&amp;lt;include&amp;gt;&amp;gt;" style="edgeLabel;html=1;align=center;verticalAlign=middle;resizable=0;points=[];" vertex="1" connectable="0" parent="xuxrbrmnjuZVhDg_zc8x-62">
          <mxGeometry x="-0.3429" y="-1" relative="1" as="geometry">
            <mxPoint x="-34" y="9" as="offset" />
          </mxGeometry>
        </mxCell>
        <mxCell id="xuxrbrmnjuZVhDg_zc8x-64" style="rounded=0;orthogonalLoop=1;jettySize=auto;html=1;exitX=1;exitY=1;exitDx=0;exitDy=0;dashed=1;" edge="1" parent="1" source="xuxrbrmnjuZVhDg_zc8x-66" target="xuxrbrmnjuZVhDg_zc8x-75">
          <mxGeometry relative="1" as="geometry" />
        </mxCell>
        <mxCell id="xuxrbrmnjuZVhDg_zc8x-65" value="&amp;lt;&amp;lt;extend&amp;gt;&amp;gt;" style="edgeLabel;html=1;align=center;verticalAlign=middle;resizable=0;points=[];" vertex="1" connectable="0" parent="xuxrbrmnjuZVhDg_zc8x-64">
          <mxGeometry x="0.0616" y="-1" relative="1" as="geometry">
            <mxPoint x="29" y="-10" as="offset" />
          </mxGeometry>
        </mxCell>
        <mxCell id="xuxrbrmnjuZVhDg_zc8x-66" value="Получение номера выделенной ячейки гардероба" style="ellipse;whiteSpace=wrap;html=1;" vertex="1" parent="1">
          <mxGeometry x="785" y="215" width="140" height="70" as="geometry" />
        </mxCell>
        <mxCell id="xuxrbrmnjuZVhDg_zc8x-69" style="rounded=0;orthogonalLoop=1;jettySize=auto;html=1;endArrow=none;endFill=0;entryX=0.5;entryY=0.5;entryDx=0;entryDy=0;entryPerimeter=0;" edge="1" parent="1" target="xuxrbrmnjuZVhDg_zc8x-45">
          <mxGeometry relative="1" as="geometry">
            <mxPoint x="780" y="250" as="sourcePoint" />
            <mxPoint x="581" y="347" as="targetPoint" />
            <Array as="points" />
          </mxGeometry>
        </mxCell>
        <mxCell id="xuxrbrmnjuZVhDg_zc8x-70" value="Получение номера запрашиваемой ячейки гардероба" style="ellipse;whiteSpace=wrap;html=1;" vertex="1" parent="1">
          <mxGeometry x="785" y="425" width="140" height="70" as="geometry" />
        </mxCell>
        <mxCell id="xuxrbrmnjuZVhDg_zc8x-71" value="Получение вещи из ячейки АГР" style="ellipse;whiteSpace=wrap;html=1;" vertex="1" parent="1">
          <mxGeometry x="1070" y="380" width="140" height="70" as="geometry" />
        </mxCell>
        <mxCell id="xuxrbrmnjuZVhDg_zc8x-72" value="Помещение вещи в ячейку АГР" style="ellipse;whiteSpace=wrap;html=1;" vertex="1" parent="1">
          <mxGeometry x="1000" y="490" width="140" height="70" as="geometry" />
        </mxCell>
        <mxCell id="xuxrbrmnjuZVhDg_zc8x-73" style="rounded=0;orthogonalLoop=1;jettySize=auto;html=1;exitX=0.5;exitY=1;exitDx=0;exitDy=0;dashed=1;" edge="1" parent="1" source="xuxrbrmnjuZVhDg_zc8x-75" target="xuxrbrmnjuZVhDg_zc8x-70">
          <mxGeometry relative="1" as="geometry" />
        </mxCell>
        <mxCell id="xuxrbrmnjuZVhDg_zc8x-74" value="&amp;lt;&amp;lt;incllude&amp;gt;&amp;gt;" style="edgeLabel;html=1;align=center;verticalAlign=middle;resizable=0;points=[];" vertex="1" connectable="0" parent="xuxrbrmnjuZVhDg_zc8x-73">
          <mxGeometry x="-0.339" y="4" relative="1" as="geometry">
            <mxPoint x="6" y="15" as="offset" />
          </mxGeometry>
        </mxCell>
        <mxCell id="xuxrbrmnjuZVhDg_zc8x-75" value="Получение вещи для помещения на хранение" style="ellipse;whiteSpace=wrap;html=1;" vertex="1" parent="1">
          <mxGeometry x="890" y="310" width="150" height="70" as="geometry" />
        </mxCell>
        <mxCell id="xuxrbrmnjuZVhDg_zc8x-76" style="rounded=0;orthogonalLoop=1;jettySize=auto;html=1;dashed=1;entryX=0;entryY=0.5;entryDx=0;entryDy=0;exitX=1;exitY=0.5;exitDx=0;exitDy=0;" edge="1" parent="1" source="xuxrbrmnjuZVhDg_zc8x-70" target="xuxrbrmnjuZVhDg_zc8x-71">
          <mxGeometry relative="1" as="geometry">
            <mxPoint x="950" y="470" as="sourcePoint" />
            <mxPoint x="947" y="323" as="targetPoint" />
          </mxGeometry>
        </mxCell>
        <mxCell id="xuxrbrmnjuZVhDg_zc8x-77" value="&amp;lt;&amp;lt;extend&amp;gt;&amp;gt;" style="edgeLabel;html=1;align=center;verticalAlign=middle;resizable=0;points=[];" vertex="1" connectable="0" parent="xuxrbrmnjuZVhDg_zc8x-76">
          <mxGeometry x="0.0616" y="-1" relative="1" as="geometry">
            <mxPoint x="-4" y="19" as="offset" />
          </mxGeometry>
        </mxCell>
        <mxCell id="xuxrbrmnjuZVhDg_zc8x-78" style="rounded=0;orthogonalLoop=1;jettySize=auto;html=1;exitX=1;exitY=1;exitDx=0;exitDy=0;dashed=1;entryX=0;entryY=0.5;entryDx=0;entryDy=0;" edge="1" parent="1" source="xuxrbrmnjuZVhDg_zc8x-70" target="xuxrbrmnjuZVhDg_zc8x-72">
          <mxGeometry relative="1" as="geometry">
            <mxPoint x="935" y="470" as="sourcePoint" />
            <mxPoint x="1082" y="432" as="targetPoint" />
          </mxGeometry>
        </mxCell>
        <mxCell id="xuxrbrmnjuZVhDg_zc8x-79" value="&amp;lt;&amp;lt;extend&amp;gt;&amp;gt;" style="edgeLabel;html=1;align=center;verticalAlign=middle;resizable=0;points=[];" vertex="1" connectable="0" parent="xuxrbrmnjuZVhDg_zc8x-78">
          <mxGeometry x="0.0616" y="-1" relative="1" as="geometry">
            <mxPoint x="29" y="-10" as="offset" />
          </mxGeometry>
        </mxCell>
        <mxCell id="xuxrbrmnjuZVhDg_zc8x-80" value="Получение информации о предыдущих посещениях" style="ellipse;whiteSpace=wrap;html=1;" vertex="1" parent="1">
          <mxGeometry x="520" y="120" width="140" height="70" as="geometry" />
        </mxCell>
      </root>
    </mxGraphModel>
  </diagram>
</mxfile>
